# Blender 4.5.3 LTS
# www.blender.org
mtllib foliage.mtl
o foliage
v 0.214752 -0.069067 0.145665
v 0.178283 -0.069067 0.138423
v 0.170273 0.802846 0.274208
v 0.222332 0.521119 0.202937
v 0.238436 0.228421 0.160019
v 0.150910 0.228421 0.142638
v 0.149394 0.521119 0.188454
v -0.274771 -0.055109 0.008136
v -0.237590 -0.055109 0.008136
v -0.256181 0.670222 -0.126609
v -0.293362 0.435858 -0.046564
v -0.300798 0.192367 -0.001330
v -0.211563 0.192367 -0.001330
v -0.218999 0.435858 -0.046564
v -0.062413 -0.052696 -0.069339
v -0.047670 -0.052696 -0.103472
v -0.178741 0.514030 -0.139832
v -0.120000 0.330913 -0.073960
v -0.081423 0.140665 -0.049198
v -0.046041 0.140665 -0.131119
v -0.090515 0.330913 -0.142228
v -0.325103 -0.064266 0.031441
v -0.345810 -0.064266 0.039869
v -0.287422 0.382275 0.153674
v -0.295250 0.237992 0.075137
v -0.307234 0.088090 0.033833
v -0.356930 0.088090 0.054060
v -0.336663 0.237992 0.091992
v -0.267360 -0.029704 0.233673
v -0.243449 -0.029704 0.262146
v -0.152219 0.374610 0.161255
v -0.237428 0.243971 0.184259
v -0.276849 0.108244 0.207654
v -0.219462 0.108244 0.275989
v -0.189605 0.243971 0.241205
v -0.244280 -0.031674 -0.208669
v -0.269138 -0.031674 -0.233086
v -0.326941 0.565334 -0.149378
v -0.260362 0.372432 -0.167436
v -0.231814 0.172019 -0.186555
v -0.291472 0.172019 -0.245155
v -0.310077 0.372432 -0.216270
v -0.092639 -0.066167 0.213937
v -0.113747 -0.066167 0.244545
v 0.007732 0.615089 0.305738
v -0.037055 0.394966 0.229686
v -0.070070 0.166271 0.197885
v -0.120730 0.166271 0.271345
v -0.079272 0.394966 0.290903
v -0.081606 -0.080075 0.121160
v -0.059655 -0.080075 0.116927
v -0.094758 0.456708 -0.006071
v -0.102377 0.283267 0.072487
v -0.098667 0.103071 0.115334
v -0.045984 0.103071 0.105174
v -0.058474 0.283267 0.064021
v 0.145279 -0.038528 0.049264
v 0.127371 -0.038528 0.016679
v 0.018238 0.447494 0.097869
v 0.106295 0.290454 0.091901
v 0.149518 0.127298 0.076632
v 0.106540 0.127298 -0.001571
v 0.070480 0.290454 0.026732
v -0.214206 -0.040896 0.043132
v -0.194580 -0.040896 0.071923
v -0.121580 0.676761 0.001077
v -0.190401 0.444876 0.005821
v -0.222126 0.203961 0.019013
v -0.175024 0.203961 0.088111
v -0.151149 0.444876 0.063403
v 0.004213 -0.075992 -0.325864
v 0.041394 -0.075992 -0.325864
v 0.022804 0.649338 -0.460608
v -0.014378 0.414974 -0.380563
v -0.021814 0.171483 -0.335330
v 0.067421 0.171483 -0.335330
v 0.059985 0.414974 -0.380563
v 0.212912 -0.073580 -0.308185
v 0.227654 -0.073580 -0.342319
v 0.096583 0.493146 -0.378679
v 0.155325 0.310029 -0.312807
v 0.193902 0.119781 -0.288045
v 0.229284 0.119781 -0.369966
v 0.184810 0.310029 -0.381074
v -0.111994 -0.085150 -0.328176
v -0.132700 -0.085150 -0.319749
v -0.074313 0.361392 -0.205944
v -0.082141 0.217108 -0.284481
v -0.094125 0.067206 -0.325785
v -0.143820 0.067206 -0.305558
v -0.123554 0.217108 -0.267625
v 0.017114 -0.050588 -0.076538
v 0.041025 -0.050588 -0.048066
v 0.132255 0.353727 -0.148956
v 0.047046 0.223087 -0.125952
v 0.007625 0.087360 -0.102557
v 0.065012 0.087360 -0.034222
v 0.094869 0.223087 -0.069006
v -0.186709 -0.052558 -0.337724
v -0.211567 -0.052558 -0.362141
v -0.269370 0.544450 -0.278434
v -0.202791 0.351549 -0.296491
v -0.174242 0.151135 -0.315610
v -0.233901 0.151135 -0.374210
v -0.252506 0.351549 -0.345325
v 0.101472 -0.041073 0.199091
v 0.115886 -0.041073 0.164818
v -0.015528 0.363241 0.129718
v 0.043843 0.232602 0.195023
v 0.082656 0.096875 0.219413
v 0.117250 0.096875 0.137157
v 0.072671 0.232602 0.126476
v 0.183421 -0.080436 -0.119938
v 0.193629 -0.080436 -0.084185
v 0.318091 0.791478 -0.139057
v 0.230914 0.509751 -0.152832
v 0.185377 0.217053 -0.147564
v 0.209877 0.217053 -0.061758
v 0.251330 0.509751 -0.081327
v 0.223721 -0.077536 0.085594
v 0.260591 -0.077536 0.090399
v 0.259567 0.603720 -0.045618
v 0.212354 0.383597 0.028951
v 0.199136 0.154902 0.072845
v 0.287623 0.154902 0.084375
v 0.286094 0.383597 0.038560
v 0.131780 -0.091444 -0.254272
v 0.117991 -0.091444 -0.271869
v 0.024591 0.445340 -0.184479
v 0.097960 0.271898 -0.213570
v 0.134387 0.091702 -0.236433
v 0.101293 0.091702 -0.278666
v 0.070382 0.271898 -0.248764
v 0.312432 -0.052265 -0.205040
v 0.329086 -0.052265 -0.235646
v 0.232725 0.665392 -0.268245
v 0.268368 0.433508 -0.209182
v 0.294590 0.192592 -0.186980
v 0.334559 0.192592 -0.260436
v 0.301675 0.433508 -0.270395
vn 0.1874 0.2733 -0.9435
vn 0.1947 0.0318 -0.9804
vn 0.1925 0.1527 -0.9693
vn -0.0000 0.3232 0.9463
vn -0.0000 0.0382 0.9993
vn -0.0000 0.1826 0.9832
vn 0.8412 0.4005 0.3633
vn 0.9169 0.0489 0.3960
vn 0.8931 0.2313 0.3858
vn -0.3338 0.4646 -0.8202
vn -0.3763 0.0587 -0.9246
vn -0.3625 0.2744 -0.8907
vn -0.6530 0.5224 0.5484
vn -0.7640 0.0685 0.6416
vn -0.7265 0.3162 0.6101
vn 0.6696 0.2949 -0.6817
vn 0.7003 0.0345 -0.7130
vn 0.6911 0.1656 -0.7036
vn -0.7737 0.3417 -0.5335
vn -0.8225 0.0407 -0.5672
vn -0.8076 0.1940 -0.5569
vn 0.1736 0.4000 0.8999
vn 0.1891 0.0488 0.9807
vn 0.1842 0.2310 0.9554
vn 0.7808 0.4541 -0.4291
vn 0.8750 0.0570 -0.4808
vn 0.8445 0.2672 -0.4641
vn -0.8003 0.2487 0.5456
vn -0.8259 0.0287 0.5630
vn -0.8183 0.1383 0.5578
vn 0.7860 0.5224 0.3306
vn 0.9196 0.0685 0.3868
vn 0.8745 0.3162 0.3678
vn -0.9250 0.2733 0.2641
vn -0.9611 0.0318 0.2744
vn -0.9503 0.1527 0.2713
vn -0.1214 0.3417 0.9319
vn -0.1291 0.0407 0.9908
vn -0.1268 0.1940 0.9728
vn 0.7214 0.4000 -0.5653
vn 0.7862 0.0488 -0.6161
vn 0.7658 0.2310 -0.6001
vn 0.8508 0.2487 0.4629
vn 0.8780 0.0287 0.4778
vn 0.8699 0.1383 0.4734
vt 0.017615 0.348577
vt 0.061290 0.347480
vt 0.043772 0.520040
vt 0.019778 -0.000453
vt 0.041615 -0.001002
vt 0.061290 0.173423
vt 0.008881 0.174739
vt 0.176235 0.290168
vt 0.219802 0.288860
vt 0.202375 0.434608
vt 0.178413 -0.000347
vt 0.200197 -0.001001
vt 0.219802 0.143635
vt 0.167522 0.145205
vt 0.531956 0.225654
vt 0.575034 0.224016
vt 0.557897 0.340604
vt 0.534153 -0.000182
vt 0.555692 -0.001001
vt 0.575034 0.110571
vt 0.523341 0.112537
vt 0.926213 0.172804
vt 0.952122 0.172061
vt 0.941876 0.266847
vt 0.927563 -0.006149
vt 0.940517 -0.006520
vt 0.952122 0.081657
vt 0.921031 0.082548
vt 0.719073 0.153677
vt 0.761085 0.155860
vt 0.735580 0.241326
vt 0.737838 -0.004721
vt 0.758843 -0.003629
vt 0.769487 0.075253
vt 0.719073 0.072633
vt 0.482135 0.237699
vt 0.522823 0.236303
vt 0.506521 0.354872
vt 0.484157 -0.000304
vt 0.504501 -0.001001
vt 0.522823 0.117511
vt 0.473997 0.119186
vt 0.372091 0.270300
vt 0.415462 0.271683
vt 0.389419 0.407601
vt 0.391598 -0.001001
vt 0.413284 -0.000310
vt 0.424136 0.135854
vt 0.372091 0.134194
vt 0.627762 0.213589
vt 0.653813 0.214218
vt 0.638125 0.324166
vt 0.639459 -0.001001
vt 0.652485 -0.000687
vt 0.659024 0.106371
vt 0.627762 0.105617
vt 0.868821 0.187133
vt 0.911861 0.189023
vt 0.885860 0.290096
vt 0.888107 -0.006520
vt 0.909627 -0.005575
vt 0.920468 0.091219
vt 0.868821 0.088951
vt 0.220319 0.285194
vt 0.261213 0.286365
vt 0.236741 0.426266
vt 0.238750 -0.001001
vt 0.259197 -0.000416
vt 0.269391 0.143739
vt 0.220319 0.142333
vt 0.123437 0.290168
vt 0.167004 0.288860
vt 0.149577 0.434608
vt 0.125616 -0.000347
vt 0.147399 -0.001001
vt 0.167004 0.143635
vt 0.114724 0.145205
vt 0.575551 0.224016
vt 0.618629 0.225654
vt 0.592687 0.340604
vt 0.594893 -0.001001
vt 0.616432 -0.000182
vt 0.627244 0.112537
vt 0.575551 0.110571
vt 0.774825 0.172220
vt 0.800734 0.172963
vt 0.785071 0.267005
vt 0.786430 -0.006361
vt 0.799384 -0.005990
vt 0.805915 0.082707
vt 0.774825 0.081815
vt 0.670272 0.156908
vt 0.712283 0.154725
vt 0.695777 0.242374
vt 0.672513 -0.002581
vt 0.693519 -0.003672
vt 0.712283 0.073681
vt 0.661870 0.076301
vt 0.432791 0.237699
vt 0.473480 0.236303
vt 0.457177 0.354872
vt 0.434814 -0.000304
vt 0.455158 -0.001001
vt 0.473480 0.117511
vt 0.424653 0.119186
vt 0.817925 0.155834
vt 0.860358 0.153629
vt 0.843686 0.242160
vt 0.820189 -0.005259
vt 0.841406 -0.006361
vt 0.860358 0.071770
vt 0.809438 0.074416
vt 0.061807 0.347413
vt 0.105473 0.348509
vt 0.079322 0.519940
vt 0.081479 -0.001002
vt 0.103312 -0.000453
vt 0.114207 0.174705
vt 0.061807 0.173389
vt 0.328091 0.272383
vt 0.371573 0.270996
vt 0.354201 0.408649
vt 0.330274 -0.000308
vt 0.352015 -0.001001
vt 0.371573 0.134540
vt 0.319394 0.136205
vt 0.969442 0.205076
vt 0.995337 0.204450
vt 0.985035 0.314361
vt 0.970762 -0.008537
vt 0.983710 -0.008849
vt 0.995337 0.097127
vt 0.964263 0.097877
vt 0.269909 0.284585
vt 0.310715 0.285754
vt 0.286296 0.425357
vt 0.288300 -0.001001
vt 0.308704 -0.000417
vt 0.318877 0.143431
vt 0.269909 0.142028
s 0
f 4/1/1 7/2/1 3/3/1
f 1/4/2 2/5/2 6/6/2 5/7/2
f 5/7/3 6/6/3 7/2/3 4/1/3
f 11/8/4 14/9/4 10/10/4
f 8/11/5 9/12/5 13/13/5 12/14/5
f 12/14/6 13/13/6 14/9/6 11/8/6
f 18/15/7 21/16/7 17/17/7
f 15/18/8 16/19/8 20/20/8 19/21/8
f 19/21/9 20/20/9 21/16/9 18/15/9
f 25/22/10 28/23/10 24/24/10
f 22/25/11 23/26/11 27/27/11 26/28/11
f 26/28/12 27/27/12 28/23/12 25/22/12
f 32/29/13 35/30/13 31/31/13
f 29/32/14 30/33/14 34/34/14 33/35/14
f 33/35/15 34/34/15 35/30/15 32/29/15
f 39/36/16 42/37/16 38/38/16
f 36/39/17 37/40/17 41/41/17 40/42/17
f 40/42/18 41/41/18 42/37/18 39/36/18
f 46/43/19 49/44/19 45/45/19
f 43/46/20 44/47/20 48/48/20 47/49/20
f 47/49/21 48/48/21 49/44/21 46/43/21
f 53/50/22 56/51/22 52/52/22
f 50/53/23 51/54/23 55/55/23 54/56/23
f 54/56/24 55/55/24 56/51/24 53/50/24
f 60/57/25 63/58/25 59/59/25
f 57/60/26 58/61/26 62/62/26 61/63/26
f 61/63/27 62/62/27 63/58/27 60/57/27
f 67/64/28 70/65/28 66/66/28
f 64/67/29 65/68/29 69/69/29 68/70/29
f 68/70/30 69/69/30 70/65/30 67/64/30
f 74/71/4 77/72/4 73/73/4
f 71/74/5 72/75/5 76/76/5 75/77/5
f 75/77/6 76/76/6 77/72/6 74/71/6
f 81/78/7 84/79/7 80/80/7
f 78/81/8 79/82/8 83/83/8 82/84/8
f 82/84/9 83/83/9 84/79/9 81/78/9
f 88/85/10 91/86/10 87/87/10
f 85/88/11 86/89/11 90/90/11 89/91/11
f 89/91/12 90/90/12 91/86/12 88/85/12
f 95/92/13 98/93/13 94/94/13
f 92/95/14 93/96/14 97/97/14 96/98/14
f 96/98/15 97/97/15 98/93/15 95/92/15
f 102/99/16 105/100/16 101/101/16
f 99/102/17 100/103/17 104/104/17 103/105/17
f 103/105/18 104/104/18 105/100/18 102/99/18
f 109/106/31 112/107/31 108/108/31
f 106/109/32 107/110/32 111/111/32 110/112/32
f 110/112/33 111/111/33 112/107/33 109/106/33
f 116/113/34 119/114/34 115/115/34
f 113/116/35 114/117/35 118/118/35 117/119/35
f 117/119/36 118/118/36 119/114/36 116/113/36
f 123/120/37 126/121/37 122/122/37
f 120/123/38 121/124/38 125/125/38 124/126/38
f 124/126/39 125/125/39 126/121/39 123/120/39
f 130/127/40 133/128/40 129/129/40
f 127/130/41 128/131/41 132/132/41 131/133/41
f 131/133/42 132/132/42 133/128/42 130/127/42
f 137/134/43 140/135/43 136/136/43
f 134/137/44 135/138/44 139/139/44 138/140/44
f 138/140/45 139/139/45 140/135/45 137/134/45
